<?xml version="1.0" encoding="UTF-8"?>
<svg version="1.1" xmlns="http://www.w3.org/2000/svg" width="200" height="197">
<path d="M0 0 C0.6688623 0.23605957 1.33772461 0.47211914 2.02685547 0.71533203 C25.22598936 9.23174781 43.62671276 26.50618832 54.73828125 48.4296875 C65.32502809 71.59968927 67.35991635 98.02837458 58.64208984 122.13696289 C49.12567852 146.67805319 32.08256016 166.15630839 7.97265625 177.1640625 C-16.43869643 187.50867532 -43.71229287 187.35580333 -68.25 177.6875 C-91.68849053 167.20019696 -110.051898 149.25624623 -119.5703125 125.203125 C-126.43112829 105.72991132 -128.14389773 87.13825547 -123 67 C-122.83902832 66.35562988 -122.67805664 65.71125977 -122.51220703 65.04736328 C-118.21500519 48.30024719 -110.19298434 35.13713861 -98 23 C-97.37222656 22.32453125 -96.74445313 21.6490625 -96.09765625 20.953125 C-88.46291781 12.83335612 -79.04441062 7.60703634 -69 3 C-68.17757812 2.6184375 -67.35515625 2.236875 -66.5078125 1.84375 C-46.47603244 -6.8257417 -20.5586586 -7.30753035 0 0 Z " fill="#ED7E0C" transform="translate(133,8)"/>
<path d="M0 0 C12.21141218 9.62440189 21.35070644 22.73037894 24.125 38.25 C25.57756067 53.38365535 22.43358383 70.75543424 12.81103516 82.90966797 C4.7519314 92.4365343 4.7519314 92.4365343 1.125 94.25 C0.71770772 96.57156597 0.38061323 98.9068787 0.125 101.25 C0.785 101.25 1.445 101.25 2.125 101.25 C2.455 103.23 2.785 105.21 3.125 107.25 C-0.175 107.25 -3.475 107.25 -6.875 107.25 C-6.875 106.59 -6.875 105.93 -6.875 105.25 C-13.805 105.25 -20.735 105.25 -27.875 105.25 C-28.37 96.34 -28.37 96.34 -28.875 87.25 C-32.175 87.25 -35.475 87.25 -38.875 87.25 C-39.205 93.19 -39.535 99.13 -39.875 105.25 C-47.135 105.25 -54.395 105.25 -61.875 105.25 C-61.875 105.91 -61.875 106.57 -61.875 107.25 C-65.175 107.25 -68.475 107.25 -71.875 107.25 C-71.545 105.27 -71.215 103.29 -70.875 101.25 C-70.215 101.25 -69.555 101.25 -68.875 101.25 C-68.86853519 96.45956559 -68.86853519 96.45956559 -71.44140625 92.61328125 C-72.83206982 91.48932028 -74.22410286 90.36705254 -75.6171875 89.24609375 C-86.50263198 79.62245685 -92.14291406 65.21821619 -93.09375 50.97265625 C-93.52105154 34.85982717 -89.13120001 21.16035525 -78.5 8.875 C-57.46129349 -13.0892672 -25.41077841 -17.14966115 0 0 Z " fill="#FEF8F2" transform="translate(135.875,52.75)"/>
<path d="M0 0 C7.76289101 0.53537179 12.10973122 2.6931021 17.3125 8.625 C18.79472458 10.40678178 19.96248246 11.92496493 21 14 C21.226875 12.9275 21.45375 11.855 21.6875 10.75 C23.18758686 6.46403753 24.01315058 5.12066459 28 3 C31.03251497 2.68962515 33.96444364 2.76191715 37 3 C37 3.66 37 4.32 37 5 C36.38511719 5.01417969 35.77023438 5.02835938 35.13671875 5.04296875 C33.92435547 5.11451172 33.92435547 5.11451172 32.6875 5.1875 C31.48673828 5.23970703 31.48673828 5.23970703 30.26171875 5.29296875 C27.81315958 5.83202553 27.81315958 5.83202553 26.25 8.125 C24.79495895 11.4715944 24.49619409 14.17535694 24.3125 17.8125 C24.24675781 18.97394531 24.18101563 20.13539062 24.11328125 21.33203125 C24.07589844 22.21246094 24.03851563 23.09289062 24 24 C24.87140625 23.86980469 25.7428125 23.73960938 26.640625 23.60546875 C37.28386211 22.37297268 45.3393751 24.08212672 53.875 30.75 C63.2272537 39.71542082 67.0700285 50.60217582 67.52294922 63.34399414 C67.66321018 74.09300572 67.53761307 85.97435988 59.828125 94.36328125 C59.22484375 94.90339844 58.6215625 95.44351563 58 96 C57.87625 95.360625 57.7525 94.72125 57.625 94.0625 C57.41875 93.381875 57.2125 92.70125 57 92 C56.34 91.67 55.68 91.34 55 91 C55.66 91 56.32 91 57 91 C57.185625 89.5459375 57.185625 89.5459375 57.375 88.0625 C57.58125 87.051875 57.7875 86.04125 58 85 C58.66 84.67 59.32 84.34 60 84 C60.495 82.02 60.495 82.02 61 80 C36.25 80 11.5 80 -14 80 C-13.67 81.32 -13.34 82.64 -13 84 C-12.34 84.33 -11.68 84.66 -11 85 C-11 86.98 -11 88.96 -11 91 C-10.01 91.33 -9.02 91.66 -8 92 C-8.99 92 -9.98 92 -11 92 C-10.67 92.99 -10.34 93.98 -10 95 C-10.99 95 -11.98 95 -13 95 C-13.80063104 93.33762104 -14.59000368 91.66981875 -15.375 90 C-15.81585938 89.071875 -16.25671875 88.14375 -16.7109375 87.1875 C-21.74115698 74.7491391 -22.22457358 58.97546964 -17.1953125 46.47265625 C-12.05858103 35.84667253 -5.31160651 28.15740515 6 24 C11.50628293 22.70651755 16.48186547 22.94333594 22 24 C22 22.35 22 20.7 22 19 C21.030625 18.95875 20.06125 18.9175 19.0625 18.875 C13.13823451 17.9977761 8.08696205 14.57655742 4.3515625 9.96484375 C2.24206662 6.70305098 0.81347802 3.81317822 0 0 Z " fill="#FEFDFC" transform="translate(78,47)"/>
<path d="M0 0 C12.21141218 9.62440189 21.35070644 22.73037894 24.125 38.25 C25.57756067 53.38365535 22.43358383 70.75543424 12.81103516 82.90966797 C4.7519314 92.4365343 4.7519314 92.4365343 1.125 94.25 C0.71770772 96.57156597 0.38061323 98.9068787 0.125 101.25 C0.785 101.25 1.445 101.25 2.125 101.25 C1.63 102.735 1.63 102.735 1.125 104.25 C-0.9375 104.9375 -0.9375 104.9375 -2.875 105.25 C-3.535 103.93 -4.195 102.61 -4.875 101.25 C-4.215 101.25 -3.555 101.25 -2.875 101.25 C-2.84787934 99.81260487 -2.82854933 98.37506137 -2.8125 96.9375 C-2.80089844 96.13699219 -2.78929687 95.33648437 -2.77734375 94.51171875 C-2.77842145 92.08138666 -2.77842145 92.08138666 -3.875 89.25 C-2.225 89.25 -0.575 89.25 1.125 89.25 C1.92455001 87.73329636 2.71421388 86.21138002 3.5 84.6875 C3.94085938 83.84058594 4.38171875 82.99367188 4.8359375 82.12109375 C9.98346874 70.65613781 10.20881233 54.53590069 6.625 42.5 C2.39513462 32.35423899 -3.77849938 24.79184275 -13.875 20.25 C-18.48918615 18.39291684 -22.28788593 18.03137521 -27.25 18.125 C-29.11785156 18.15207031 -29.11785156 18.15207031 -31.0234375 18.1796875 C-32.43496094 18.21449219 -32.43496094 18.21449219 -33.875 18.25 C-33.95650744 16.18816367 -34.0144194 14.12538651 -34.0625 12.0625 C-34.11470703 10.33966797 -34.11470703 10.33966797 -34.16796875 8.58203125 C-33.8240805 4.67087553 -32.6690149 2.0440149 -29.875 -0.75 C-28.35571962 -0.82179964 -26.83332518 -0.83392007 -25.3125 -0.8125 C-24.48621094 -0.80347656 -23.65992188 -0.79445313 -22.80859375 -0.78515625 C-22.17050781 -0.77355469 -21.53242187 -0.76195312 -20.875 -0.75 C-20.875 -1.41 -20.875 -2.07 -20.875 -2.75 C-25.61241162 -2.63646726 -28.93344192 -2.41693697 -32.875 0.375 C-35.21785287 3.742851 -35.63630833 6.19224163 -35.875 10.25 C-36.30296875 9.67378906 -36.7309375 9.09757812 -37.171875 8.50390625 C-43.1861852 0.54460124 -47.63224398 -4.19806727 -57.875 -5.75 C-41.34863899 -16.767574 -15.10028697 -10.19114017 0 0 Z " fill="#F39B3E" transform="translate(135.875,52.75)"/>
<path d="M0 0 C2.51815182 1.25907591 2.69260426 2.21474667 3.8125 4.75 C7.17526621 11.64798196 12.0233914 15.17052057 19 18 C20.32641899 18.35986324 21.65849996 18.70122494 23 19 C23 20.65 23 22.3 23 24 C22.17757812 23.95359375 21.35515625 23.9071875 20.5078125 23.859375 C9.80640834 23.51337117 2.92376069 25.23891428 -5.3125 32.1875 C-9.67458153 36.37181645 -12.65115758 40.44298256 -15 46 C-15.31710938 46.68835938 -15.63421875 47.37671875 -15.9609375 48.0859375 C-20.77807199 60.68119741 -19.21664402 76.82201497 -14 89 C-13.01877841 91.00927952 -12.02339 93.01186698 -11 95 C-9.68 95 -8.36 95 -7 95 C-7 98.96 -7 102.92 -7 107 C-6.34 107 -5.68 107 -5 107 C-5.66 108.32 -6.32 109.64 -7 111 C-8.65 110.67 -10.3 110.34 -12 110 C-12 109.01 -12 108.02 -12 107 C-11.34 107 -10.68 107 -10 107 C-9.99353519 102.20956559 -9.99353519 102.20956559 -12.56640625 98.36328125 C-13.95706982 97.23932028 -15.34910286 96.11705254 -16.7421875 94.99609375 C-27.62763198 85.37245685 -33.26791406 70.96821619 -34.21875 56.72265625 C-34.64605154 40.60982717 -30.25620001 26.91035525 -19.625 14.625 C-13.99698493 8.72852766 -7.68797172 3.00018409 0 0 Z " fill="#F7CC62" transform="translate(77,47)"/>
<path d="M0 0 C17.65221207 8.24769617 17.65221207 8.24769617 24 15 C24.5259375 15.51820312 25.051875 16.03640625 25.59375 16.5703125 C35.60845825 27.14707071 38.71604752 40.5117953 38.390625 54.5859375 C37.87823896 63.07743653 34.50713762 70.86259732 30 78 C28.99806815 74.99420446 28.93298906 73.22009799 29.04296875 70.09765625 C29.45144891 53.96806449 28.6319792 41.32910124 17 29 C9.7923969 23.4497007 2.75996737 20.70264213 -6.375 20.875 C-8.24285156 20.90207031 -8.24285156 20.90207031 -10.1484375 20.9296875 C-11.55996094 20.96449219 -11.55996094 20.96449219 -13 21 C-13.08150744 18.93816367 -13.1394194 16.87538651 -13.1875 14.8125 C-13.22230469 13.66394531 -13.25710937 12.51539063 -13.29296875 11.33203125 C-12.9490805 7.42087553 -11.7940149 4.7940149 -9 2 C-7.48071962 1.92820036 -5.95832518 1.91607993 -4.4375 1.9375 C-3.61121094 1.94652344 -2.78492187 1.95554688 -1.93359375 1.96484375 C-1.29550781 1.97644531 -0.65742187 1.98804688 0 2 C0 1.34 0 0.68 0 0 Z " fill="#F7CB62" transform="translate(115,50)"/>
<path d="M0 0 C7.26 0 14.52 0 22 0 C21.67 0.99 21.34 1.98 21 3 C20.34 3 19.68 3 19 3 C19 3.66 19 4.32 19 5 C19.99 5 20.98 5 22 5 C22 8.3 22 11.6 22 15 C27.28 15 32.56 15 38 15 C38 11.37 38 7.74 38 4 C38.66 3.67 39.32 3.34 40 3 C39.505 1.515 39.505 1.515 39 0 C46.26 0 53.52 0 61 0 C61 1.32 61 2.64 61 4 C62.32 9.28 63.64 14.56 65 20 C42.23 20 19.46 20 -4 20 C-0.625 7.625 -0.625 7.625 1 3 C0.34 3 -0.32 3 -1 3 C-0.67 2.01 -0.34 1.02 0 0 Z " fill="#F39D42" transform="translate(71,105)"/>
<path d="M0 0 C0.66 0.33 1.32 0.66 2 1 C2.625 4.0625 2.625 4.0625 3 7 C2.29875 7.4125 1.5975 7.825 0.875 8.25 C-11.7616444 15.9418705 -20.44205033 25.07552724 -24.45703125 39.578125 C-27.53744207 53.31808692 -26.70361925 65.80368375 -19.73046875 78.26953125 C-18.92900117 79.51880294 -18.10938907 80.75667592 -17.26953125 81.98046875 C-14.70167323 86.06533828 -12.9097978 90.57902126 -11 95 C-9.68 95 -8.36 95 -7 95 C-7 98.96 -7 102.92 -7 107 C-6.34 107 -5.68 107 -5 107 C-5.66 108.32 -6.32 109.64 -7 111 C-8.65 110.67 -10.3 110.34 -12 110 C-12 109.01 -12 108.02 -12 107 C-11.34 107 -10.68 107 -10 107 C-9.99353519 102.20956559 -9.99353519 102.20956559 -12.56640625 98.36328125 C-13.95706982 97.23932028 -15.34910286 96.11705254 -16.7421875 94.99609375 C-27.62763198 85.37245685 -33.26791406 70.96821619 -34.21875 56.72265625 C-34.64605154 40.60982717 -30.25620001 26.91035525 -19.625 14.625 C-13.99698493 8.72852766 -7.68797172 3.00018409 0 0 Z " fill="#F39C3F" transform="translate(77,47)"/>
<path d="M0 0 C1.084021 0.00523682 2.16804199 0.01047363 3.28491211 0.01586914 C5.03964844 0.02070313 5.03964844 0.02070313 6.82983398 0.02563477 C8.0615332 0.03401367 9.29323242 0.04239258 10.56225586 0.05102539 C12.41560547 0.05779297 12.41560547 0.05779297 14.30639648 0.06469727 C17.37089703 0.07652931 20.43530307 0.09301366 23.49975586 0.11352539 C22.83975586 0.44352539 22.17975586 0.77352539 21.49975586 1.11352539 C21.03223798 3.46951774 21.03223798 3.46951774 20.87475586 6.17602539 C20.79999023 7.09512695 20.72522461 8.01422852 20.64819336 8.96118164 C20.59920898 9.67145508 20.55022461 10.38172852 20.49975586 11.11352539 C19.50975586 11.11352539 18.51975586 11.11352539 17.49975586 11.11352539 C18.48975586 12.43352539 19.47975586 13.75352539 20.49975586 15.11352539 C19.83975586 15.11352539 19.17975586 15.11352539 18.49975586 15.11352539 C18.49975586 15.77352539 18.49975586 16.43352539 18.49975586 17.11352539 C19.15975586 17.44352539 19.81975586 17.77352539 20.49975586 18.11352539 C19.83975586 18.11352539 19.17975586 18.11352539 18.49975586 18.11352539 C18.49975586 18.77352539 18.49975586 19.43352539 18.49975586 20.11352539 C19.15975586 20.44352539 19.81975586 20.77352539 20.49975586 21.11352539 C19.83975586 21.11352539 19.17975586 21.11352539 18.49975586 21.11352539 C18.49975586 21.77352539 18.49975586 22.43352539 18.49975586 23.11352539 C17.83975586 23.11352539 17.17975586 23.11352539 16.49975586 23.11352539 C17.15975586 24.10352539 17.81975586 25.09352539 18.49975586 26.11352539 C19.81975586 25.78352539 21.13975586 25.45352539 22.49975586 25.11352539 C23.15975586 26.43352539 23.81975586 27.75352539 24.49975586 29.11352539 C21.19975586 29.11352539 17.89975586 29.11352539 14.49975586 29.11352539 C14.49975586 28.45352539 14.49975586 27.79352539 14.49975586 27.11352539 C7.56975586 27.11352539 0.63975586 27.11352539 -6.50024414 27.11352539 C-6.87524414 18.30102539 -6.87524414 18.30102539 -6.97827148 15.53613281 C-7.01388184 14.81272705 -7.04949219 14.08932129 -7.08618164 13.34399414 C-7.11760254 12.60560303 -7.14902344 11.86721191 -7.18139648 11.10644531 C-7.40859028 8.80002951 -7.40859028 8.80002951 -9.50024414 6.11352539 C-7.52024414 6.11352539 -5.54024414 6.11352539 -3.50024414 6.11352539 C-3.52086914 5.30915039 -3.54149414 4.50477539 -3.56274414 3.67602539 C-3.47935824 0.25720353 -3.40808463 0.15474654 0 0 Z " fill="#FEF9F5" transform="translate(114.500244140625,130.886474609375)"/>
<path d="M0 0 C0.9075 0.00257813 1.815 0.00515625 2.75 0.0078125 C4.11125 0.00394531 4.11125 0.00394531 5.5 0 C7.75 0.1328125 7.75 0.1328125 8.75 1.1328125 C8.83631874 2.47548663 8.85706473 3.82255572 8.84765625 5.16796875 C8.84515869 5.89636963 8.84266113 6.62477051 8.84008789 7.37524414 C8.83098389 8.3058667 8.82187988 9.23648926 8.8125 10.1953125 C8.791875 13.1446875 8.77125 16.0940625 8.75 19.1328125 C15.68 19.1328125 22.61 19.1328125 29.75 19.1328125 C29.75 19.7928125 29.75 20.4528125 29.75 21.1328125 C33.38 20.8028125 37.01 20.4728125 40.75 20.1328125 C40.42 21.4528125 40.09 22.7728125 39.75 24.1328125 C15 24.1328125 -9.75 24.1328125 -35.25 24.1328125 C-35.25 23.1428125 -35.25 22.1528125 -35.25 21.1328125 C-31.95 21.1328125 -28.65 21.1328125 -25.25 21.1328125 C-25.25 20.4728125 -25.25 19.8128125 -25.25 19.1328125 C-17.99 19.1328125 -10.73 19.1328125 -3.25 19.1328125 C-3.28957769 13.25398247 -3.28957769 13.25398247 -3.34008789 7.37524414 C-3.34258545 6.64684326 -3.34508301 5.91844238 -3.34765625 5.16796875 C-3.35551147 4.04467163 -3.35551147 4.04467163 -3.36352539 2.89868164 C-3.18929042 0.18848479 -2.70114171 0.15944239 0 0 Z " fill="#F4A040" transform="translate(99.25,138.8671875)"/>
<path d="M0 0 C24.75 0 49.5 0 75 0 C75 1.32 75 2.64 75 4 C50.25 4 25.5 4 0 4 C0 2.68 0 1.36 0 0 Z " fill="#F4A858" transform="translate(64,127)"/>
<path d="M0 0 C0.33 0 0.66 0 1 0 C5.62928315 25.25439287 1.72073295 50.11743906 -11.9453125 72.07421875 C-27.12910393 93.69524495 -48.06151333 108.55899438 -74.23193359 113.4140625 C-86.64703345 115.44145774 -99.66678034 115.79107679 -112 113 C-112 112.67 -112 112.34 -112 112 C-111.15518066 112.02094727 -110.31036133 112.04189453 -109.43994141 112.06347656 C-78.63294437 112.72581233 -51.85774334 109.32719709 -28.34765625 87.3203125 C-11.93024999 71.46015502 -0.77912152 50.23653458 0.15673828 27.13012695 C0.21847747 23.00264739 0.17586023 18.87735575 0.125 14.75 C0.11493849 13.31120423 0.10581831 11.87240155 0.09765625 10.43359375 C0.0759206 6.95558247 0.04157033 3.47783755 0 0 Z " fill="#FCF1E6" transform="translate(194,78)"/>
<path d="M0 0 C0.33 0 0.66 0 1 0 C1.02712153 1.916588 1.04645097 3.8332873 1.0625 5.75 C1.07410156 6.81734375 1.08570312 7.8846875 1.09765625 8.984375 C1.01510087 11.53368501 0.74617558 13.57933591 0 16 C2.52349243 12.87567603 4.27256146 9.61939504 6 6 C6.33 6.66 6.66 7.32 7 8 C7.66 8 8.32 8 9 8 C8.68698867 11.44312464 8.42342076 13.48897494 6.1875 16.1875 C4.16742119 17.86127958 2.1347592 19.475172 0 21 C0 20.34 0 19.68 0 19 C-1.31571603 19.2547514 -2.62760376 19.52934141 -3.9375 19.8125 C-4.66839844 19.96332031 -5.39929688 20.11414063 -6.15234375 20.26953125 C-7.06693359 20.63111328 -7.06693359 20.63111328 -8 21 C-8.33 21.99 -8.66 22.98 -9 24 C-11.95664519 25.4783226 -14.74229737 25.06032783 -18 25 C-19.55024464 21.89951072 -19.28992015 19.42105782 -19 16 C-17.375 13.125 -17.375 13.125 -15 11 C-11.75 10.1875 -11.75 10.1875 -9 10 C-8.67 10.99 -8.34 11.98 -8 13 C-7.34 13 -6.68 13 -6 13 C-5.34 12.34 -4.68 11.68 -4 11 C-3.34 11 -2.68 11 -2 11 C-1.34 7.37 -0.68 3.74 0 0 Z " fill="#E27708" transform="translate(84,12)"/>
<path d="M0 0 C1 2 1 2 0.875 5.25 C0.71794426 8.97280256 0.71794426 8.97280256 2.5 11.75 C4.68184923 16.47734001 4.83143619 20.87928552 4 26 C1.8125 29.25 1.8125 29.25 -1 31 C-3.6875 31.0625 -3.6875 31.0625 -6 30 C-8.07552325 26.87287831 -8.12001013 24.83717969 -7.5625 21.1875 C-7.00737671 16.83042766 -7.15902424 13.29832055 -8 9 C-9.32 10.32 -10.64 11.64 -12 13 C-11.67 11.35 -11.34 9.7 -11 8 C-9.824375 7.87625 -9.824375 7.87625 -8.625 7.75 C-5.87895793 7.29719002 -5.87895793 7.29719002 -4.9375 5.125 C-4.4734375 4.073125 -4.4734375 4.073125 -4 3 C-1.875 1.25 -1.875 1.25 0 0 Z " fill="#C76807" transform="translate(45,30)"/>
<path d="M0 0 C1.67578125 1.13671875 1.67578125 1.13671875 3 3 C3.29296875 5.91796875 3.29296875 5.91796875 3.1875 9.1875 C3.16042969 10.27417969 3.13335937 11.36085937 3.10546875 12.48046875 C3.07066406 13.31191406 3.03585938 14.14335937 3 15 C3.66 15.33 4.32 15.66 5 16 C4 17 4 17 0.62109375 17.09765625 C-0.77347077 17.09098369 -2.16801743 17.07902532 -3.5625 17.0625 C-4.27341797 17.05798828 -4.98433594 17.05347656 -5.71679688 17.04882812 C-7.47790013 17.03700864 -9.23896036 17.01907263 -11 17 C-11 16.34 -11 15.68 -11 15 C-10.34 15 -9.68 15 -9 15 C-9.03480469 14.16855469 -9.06960937 13.33710938 -9.10546875 12.48046875 C-9.13253906 11.39378906 -9.15960938 10.30710938 -9.1875 9.1875 C-9.22230469 8.10855469 -9.25710937 7.02960938 -9.29296875 5.91796875 C-9 3 -9 3 -7.67578125 1.13671875 C-5.06649976 -0.63321345 -3.0622653 -0.38278316 0 0 Z " fill="#FCB310" transform="translate(123,133)"/>
<path d="M0 0 C4.64749599 4.53710416 3.69560569 10.91211376 4 17 C-0.95 17 -5.9 17 -11 17 C-10.34 16.67 -9.68 16.34 -9 16 C-9.03480469 15.09636719 -9.06960937 14.19273437 -9.10546875 13.26171875 C-9.13253906 12.08222656 -9.15960938 10.90273437 -9.1875 9.6875 C-9.22230469 8.51574219 -9.25710937 7.34398437 -9.29296875 6.13671875 C-9 3 -9 3 -7.67578125 1.109375 C-5.02874724 -0.64297386 -3.08068173 -0.44926608 0 0 Z " fill="#FAB122" transform="translate(86,133)"/>
<path d="M0 0 C0.495 0.99 0.495 0.99 1 2 C0.67 2.66 0.34 3.32 0 4 C-24.75 4 -49.5 4 -75 4 C-75 3.01 -75 2.02 -75 1 C-74.20788116 1.00222061 -73.41576233 1.00444122 -72.59963989 1.00672913 C-65.09752181 1.02685078 -57.59541701 1.04203431 -50.09327888 1.05181217 C-46.23730432 1.0570082 -42.38135225 1.06404556 -38.52539062 1.07543945 C-34.79712582 1.08638581 -31.06888252 1.09230148 -27.34060287 1.09487724 C-25.92541033 1.09671048 -24.51021883 1.10028986 -23.09503555 1.10573006 C-15.33199675 1.13435803 -7.70484801 1.00344357 0 0 Z " fill="#F8A516" transform="translate(139,159)"/>
<path d="M0 0 C-0.639375 0.309375 -1.27875 0.61875 -1.9375 0.9375 C-3.93610821 1.8345163 -3.93610821 1.8345163 -5 3 C-2.36 3.33 0.28 3.66 3 4 C3 4.33 3 4.66 3 5 C1.35 5.33 -0.3 5.66 -2 6 C-1.67 7.32 -1.34 8.64 -1 10 C-3.93652662 12.84754097 -5.50341165 13.94006692 -9.625 14.4375 C-13 14 -13 14 -15 12.8125 C-16 11 -16 11 -15.9375 8.625 C-14.78159304 5.38846052 -13.431202 3.431202 -11 1 C-7.37749136 -0.23927927 -3.80535393 -0.0884966 0 0 Z " fill="#D67108" transform="translate(141,19)"/>
<path d="M0 0 C0 0.99 0 1.98 0 3 C4.455 2.505 4.455 2.505 9 2 C8.01 2.495 8.01 2.495 7 3 C7 3.66 7 4.32 7 5 C4.03 5.66 1.06 6.32 -2 7 C3.46137814 7.09752461 8.59255982 6.77249145 14 6 C13.01 7.485 13.01 7.485 12 9 C8.375 9.6875 8.375 9.6875 5 10 C5.62648437 10.02578125 6.25296875 10.0515625 6.8984375 10.078125 C8.12433594 10.16320312 8.12433594 10.16320312 9.375 10.25 C10.59316406 10.31960937 10.59316406 10.31960937 11.8359375 10.390625 C12.55007812 10.59171875 13.26421875 10.7928125 14 11 C14.66 12.32 15.32 13.64 16 15 C13.03 15.66 10.06 16.32 7 17 C7 16.34 7 15.68 7 15 C6.01 15 5.02 15 4 15 C4 14.34 4 13.68 4 13 C2.68 12.67 1.36 12.34 0 12 C0 11.01 0 10.02 0 9 C-1.65 8.67 -3.3 8.34 -5 8 C-4.67 7.34 -4.34 6.68 -4 6 C-6.97 5.505 -6.97 5.505 -10 5 C-7.62417533 -0.26075462 -5.61350876 -0.1220328 0 0 Z " fill="#804304" transform="translate(146,31)"/>
<path d="M0 0 C0.66 0.33 1.32 0.66 2 1 C0.57189185 2.50894446 -0.86781019 4.00692345 -2.3125 5.5 C-3.11300781 6.3353125 -3.91351563 7.170625 -4.73828125 8.03125 C-7 10 -7 10 -10 10 C-11.7015625 10.2784375 -11.7015625 10.2784375 -13.4375 10.5625 C-16.60906559 10.95199051 -18.06031862 10.83990897 -21 10 C-21.99 10.33 -22.98 10.66 -24 11 C-23.67 9.35 -23.34 7.7 -23 6 C-24.70840281 7.63412443 -25.93453047 8.86906094 -27 11 C-27.66 10.67 -28.32 10.34 -29 10 C-25.375 3.125 -25.375 3.125 -22 2 C-21.01 2 -20.02 2 -19 2 C-19 2.99 -19 3.98 -19 5 C-18.401875 4.505 -17.80375 4.01 -17.1875 3.5 C-15 2 -15 2 -12 2 C-12 2.66 -12 3.32 -12 4 C-10.02 3.34 -8.04 2.68 -6 2 C-6 3.32 -6 4.64 -6 6 C-4.02 4.02 -2.04 2.04 0 0 Z " fill="#BF6506" transform="translate(121,17)"/>
<path d="M0 0 C1.6498007 3.29960141 1.38258361 6.99127884 1.5625 10.625 C1.60568359 11.42679688 1.64886719 12.22859375 1.69335938 13.0546875 C1.79951457 15.0362511 1.90026855 17.01810271 2 19 C1.67 18.34 1.34 17.68 1 17 C-3.41522109 18.26974972 -3.41522109 18.26974972 -7 21 C-7.33 17.04 -7.66 13.08 -8 9 C-9.32 10.32 -10.64 11.64 -12 13 C-11.67 11.35 -11.34 9.7 -11 8 C-9.824375 7.87625 -9.824375 7.87625 -8.625 7.75 C-5.87895793 7.29719002 -5.87895793 7.29719002 -4.9375 5.125 C-4.4734375 4.073125 -4.4734375 4.073125 -4 3 C-1.875 1.25 -1.875 1.25 0 0 Z " fill="#BF6407" transform="translate(45,30)"/>
<path d="M0 0 C0.33 0 0.66 0 1 0 C1.02712153 1.916588 1.04645097 3.8332873 1.0625 5.75 C1.07410156 6.81734375 1.08570312 7.8846875 1.09765625 8.984375 C1.01510087 11.53368501 0.74617558 13.57933591 0 16 C2.52349243 12.87567603 4.27256146 9.61939504 6 6 C6.33 6.66 6.66 7.32 7 8 C7.66 8 8.32 8 9 8 C8.68698867 11.44312464 8.42342076 13.48897494 6.1875 16.1875 C4.16742119 17.86127958 2.1347592 19.475172 0 21 C0 20.34 0 19.68 0 19 C-2.64 19.66 -5.28 20.32 -8 21 C-7.01 17.7 -6.02 14.4 -5 11 C-4.01 11 -3.02 11 -2 11 C-1.34 7.37 -0.68 3.74 0 0 Z " fill="#9D5305" transform="translate(84,12)"/>
<path d="M0 0 C2.97 0 5.94 0 9 0 C9 0.33 9 0.66 9 1 C7.02 1.33 5.04 1.66 3 2 C6.3 2.33 9.6 2.66 13 3 C12.67 3.99 12.34 4.98 12 6 C13.32 6.33 14.64 6.66 16 7 C16 7.99 16 8.98 16 10 C15.34 10 14.68 10 14 10 C13.67 10.66 13.34 11.32 13 12 C10.0625 11.1875 10.0625 11.1875 7 10 C6.67 9.01 6.34 8.02 6 7 C6.33 6.34 6.66 5.68 7 5 C5.94232422 5.26103516 5.94232422 5.26103516 4.86328125 5.52734375 C1.79906196 6.03316985 -0.73160701 5.89657273 -3.8125 5.5625 C-4.78832031 5.46066406 -5.76414063 5.35882813 -6.76953125 5.25390625 C-7.50558594 5.17011719 -8.24164063 5.08632813 -9 5 C-9 4.67 -9 4.34 -9 4 C-8.071875 3.87625 -7.14375 3.7525 -6.1875 3.625 C-2.86074765 3.18466918 -2.86074765 3.18466918 0 1 C0 0.67 0 0.34 0 0 Z " fill="#BF6406" transform="translate(154,48)"/>
<path d="M0 0 C3.63 0 7.26 0 11 0 C11 2.97 11 5.94 11 9 C7.37 9 3.74 9 0 9 C0 6.03 0 3.06 0 0 Z " fill="#FBB92F" transform="translate(96,110)"/>
<path d="M0 0 C0.83595703 0.00451172 1.67191406 0.00902344 2.53320312 0.01367188 C4.58466649 0.02539452 6.63609273 0.04332797 8.6875 0.0625 C8.6875 0.3925 8.6875 0.7225 8.6875 1.0625 C8.07261719 1.16046875 7.45773438 1.2584375 6.82421875 1.359375 C1.88065801 2.2054561 1.88065801 2.2054561 -2.3125 4.75 C-3.6383408 7.81600686 -3.99422519 10.75244193 -4.3125 14.0625 C-4.73144531 13.48886719 -5.15039062 12.91523437 -5.58203125 12.32421875 C-7.86905826 9.33507961 -10.37617925 6.57114779 -12.88671875 3.76953125 C-14.3125 2.0625 -14.3125 2.0625 -14.3125 1.0625 C-9.54157044 -0.17152862 -4.88780554 -0.05015112 0 0 Z " fill="#F7CB68" transform="translate(104.3125,48.9375)"/>
<path d="M0 0 C2.92466045 0.87117545 4.08984037 1.51410158 5.9375 3.875 C5.6075 4.865 5.2775 5.855 4.9375 6.875 C1.3075 7.205 -2.3225 7.535 -6.0625 7.875 C-6.3925 6.225 -6.7225 4.575 -7.0625 2.875 C-4.55814807 0.4669693 -3.54268055 -0.14459921 0 0 Z " fill="#D97208" transform="translate(135.0625,12.125)"/>
<path d="M0 0 C0.28875 0.639375 0.5775 1.27875 0.875 1.9375 C1.82823451 4.15206079 1.82823451 4.15206079 4 5 C3.67 5.99 3.34 6.98 3 8 C1.20994059 8.36220266 -0.58212057 8.71452469 -2.375 9.0625 C-3.37273437 9.25972656 -4.37046875 9.45695313 -5.3984375 9.66015625 C-8 10 -8 10 -10 9 C-10 9.66 -10 10.32 -10 11 C-10.99 10.67 -11.98 10.34 -13 10 C-13.6875 7.9375 -13.6875 7.9375 -14 6 C-12.02 5.34 -10.04 4.68 -8 4 C-8 4.99 -8 5.98 -8 7 C-7.34 7.33 -6.68 7.66 -6 8 C-6.33 6.68 -6.66 5.36 -7 4 C-5.0625 3.4375 -5.0625 3.4375 -3 3 C-2.67 3.33 -2.34 3.66 -2 4 C-1.34 2.68 -0.68 1.36 0 0 Z " fill="#8D4A05" transform="translate(134,169)"/>
<path d="M0 0 C-0.639375 0.309375 -1.27875 0.61875 -1.9375 0.9375 C-3.93610821 1.8345163 -3.93610821 1.8345163 -5 3 C-2.36 3.33 0.28 3.66 3 4 C3 4.33 3 4.66 3 5 C1.824375 5.2165625 1.824375 5.2165625 0.625 5.4375 C-1.96421018 5.87798925 -1.96421018 5.87798925 -4 7 C-5.7634375 7.2165625 -5.7634375 7.2165625 -7.5625 7.4375 C-9.2640625 7.7159375 -9.2640625 7.7159375 -11 8 C-11.33 8.66 -11.66 9.32 -12 10 C-12.33 9.34 -12.66 8.68 -13 8 C-13.66 8 -14.32 8 -15 8 C-15.33 8.66 -15.66 9.32 -16 10 C-15.42357516 6.10913233 -13.71831813 3.79382697 -11 1 C-7.37749136 -0.23927927 -3.80535393 -0.0884966 0 0 Z " fill="#954E05" transform="translate(141,19)"/>
<path d="M0 0 C7.26 0 14.52 0 22 0 C22 0.99 22 1.98 22 3 C14.74 3 7.48 3 0 3 C0 2.01 0 1.02 0 0 Z " fill="#FDCA5B" transform="translate(74,158)"/>
<path d="M0 0 C6.93 0 13.86 0 21 0 C21 0.99 21 1.98 21 3 C14.07 3 7.14 3 0 3 C0 2.01 0 1.02 0 0 Z " fill="#FDCE67" transform="translate(108,158)"/>
<path d="M0 0 C2.91633776 1.30732382 4.75864056 2.75864056 7 5 C7.66 5 8.32 5 9 5 C9.66 6.32 10.32 7.64 11 9 C12.65 8.67 14.3 8.34 16 8 C15.34 9.98 14.68 11.96 14 14 C13.34 14 12.68 14 12 14 C12 13.34 12 12.68 12 12 C11.01 12 10.02 12 9 12 C9 11.34 9 10.68 9 10 C7.35 9.67 5.7 9.34 4 9 C4.33 7.68 4.66 6.36 5 5 C3.68 5.33 2.36 5.66 1 6 C1 5.34 1 4.68 1 4 C0.34 4 -0.32 4 -1 4 C-0.67 2.68 -0.34 1.36 0 0 Z " fill="#713B03" transform="translate(53,160)"/>
<path d="M0 0 C3.3 0 6.6 0 10 0 C10 1.98 10 3.96 10 6 C6.7 6 3.4 6 0 6 C0 4.02 0 2.04 0 0 Z " fill="#F5A131" transform="translate(97,142)"/>
<path d="M0 0 C5.28 0 10.56 0 16 0 C16.33 0.99 16.66 1.98 17 3 C16.28972656 2.98839844 15.57945313 2.97679687 14.84765625 2.96484375 C13.92855469 2.95582031 13.00945312 2.94679687 12.0625 2.9375 C10.68771484 2.92009766 10.68771484 2.92009766 9.28515625 2.90234375 C7.03406673 2.74050951 7.03406673 2.74050951 6 4 C3.32941149 4.14115161 0.67567762 4.04247107 -2 4 C-1.34 2.68 -0.68 1.36 0 0 Z " fill="#FDBB26" transform="translate(94,133)"/>
<path d="M0 0 C1.22589844 0.01353516 1.22589844 0.01353516 2.4765625 0.02734375 C3.41628906 0.04474609 3.41628906 0.04474609 4.375 0.0625 C4.375 0.7225 4.375 1.3825 4.375 2.0625 C3.76011719 2.07667969 3.14523438 2.09085938 2.51171875 2.10546875 C1.29935547 2.17701172 1.29935547 2.17701172 0.0625 2.25 C-1.13826172 2.30220703 -1.13826172 2.30220703 -2.36328125 2.35546875 C-4.81184042 2.89452553 -4.81184042 2.89452553 -6.375 5.1875 C-7.83004105 8.5340944 -8.12880591 11.23785694 -8.3125 14.875 C-8.37824219 16.03644531 -8.44398437 17.19789062 -8.51171875 18.39453125 C-8.54910156 19.27496094 -8.58648437 20.15539062 -8.625 21.0625 C-10.275 21.3925 -11.925 21.7225 -13.625 22.0625 C-12.635 21.7325 -11.645 21.4025 -10.625 21.0625 C-10.67140625 20.03769531 -10.7178125 19.01289062 -10.765625 17.95703125 C-10.80316011 16.59638344 -10.83955841 15.23570395 -10.875 13.875 C-10.90851563 13.20146484 -10.94203125 12.52792969 -10.9765625 11.83398438 C-11.04801429 8.17208025 -10.74034178 6.24099378 -8.734375 3.13671875 C-5.7060362 0.15885227 -4.12832771 -0.05897611 0 0 Z " fill="#FDF5E2" transform="translate(110.625,49.9375)"/>
<path d="M0 0 C0.99 0.66 1.98 1.32 3 2 C3.4375 8.125 3.4375 8.125 2 11 C1.34 11 0.68 11 0 11 C-0.99 12.485 -0.99 12.485 -2 14 C-2.66 14 -3.32 14 -4 14 C-5.35439668 11.29120665 -5.06501451 8.99066732 -5 6 C-4.34 7.32 -3.68 8.64 -3 10 C-2.87625 8.72125 -2.7525 7.4425 -2.625 6.125 C-2.25 2.25 -2.25 2.25 0 0 Z " fill="#924D05" transform="translate(59,33)"/>
<path d="M0 0 C3.63 0 7.26 0 11 0 C11 1.65 11 3.3 11 5 C7.37 5 3.74 5 0 5 C0 3.35 0 1.7 0 0 Z " fill="#FEB703" transform="translate(77,143)"/>
<path d="M0 0 C1.65 0.33 3.3 0.66 5 1 C4.67 4.63 4.34 8.26 4 12 C4.66 12 5.32 12 6 12 C5.67 12.99 5.34 13.98 5 15 C2.9375 15.6875 2.9375 15.6875 1 16 C0.34 14.68 -0.32 13.36 -1 12 C-0.34 12 0.32 12 1 12 C1.02712066 10.56260487 1.04645067 9.12506137 1.0625 7.6875 C1.07410156 6.88699219 1.08570313 6.08648437 1.09765625 5.26171875 C1.09657855 2.83138666 1.09657855 2.83138666 0 0 Z " fill="#F7BD80" transform="translate(132,142)"/>
<path d="M0 0 C0.53625 0.268125 1.0725 0.53625 1.625 0.8125 C1.625 1.4725 1.625 2.1325 1.625 2.8125 C0.965 2.8125 0.305 2.8125 -0.375 2.8125 C-0.705 3.8025 -1.035 4.7925 -1.375 5.8125 C-1.375 5.1525 -1.375 4.4925 -1.375 3.8125 C-2.365 4.3075 -2.365 4.3075 -3.375 4.8125 C-3.045 5.4725 -2.715 6.1325 -2.375 6.8125 C-3.035 6.8125 -3.695 6.8125 -4.375 6.8125 C-4.705 8.1325 -5.035 9.4525 -5.375 10.8125 C-6.695 10.4825 -8.015 10.1525 -9.375 9.8125 C-9.16578357 6.15121248 -8.22641649 4.33301181 -5.5625 1.9375 C-2.375 -0.1875 -2.375 -0.1875 0 0 Z " fill="#954E05" transform="translate(156.375,155.1875)"/>
<path d="M0 0 C3.3 0 6.6 0 10 0 C10 1.65 10 3.3 10 5 C6.7 5 3.4 5 0 5 C0 3.35 0 1.7 0 0 Z " fill="#FEB801" transform="translate(115,143)"/>
<path d="M0 0 C0.33 0.66 0.66 1.32 1 2 C1.66 2 2.32 2 3 2 C2.68031467 5.51653861 2.37757864 7.53431968 0.125 10.3125 C-2 12 -2 12 -5 13 C-4.39254603 8.14036821 -2.27241033 4.2594482 0 0 Z " fill="#8B4905" transform="translate(90,18)"/>
<path d="M0 0 C-0.33 1.32 -0.66 2.64 -1 4 C-3.64 4.33 -6.28 4.66 -9 5 C-9.33 3.68 -9.66 2.36 -10 1 C-3.71428571 -1.42857143 -3.71428571 -1.42857143 0 0 Z " fill="#995005" transform="translate(120,177)"/>
<path d="M0 0 C0.33 0 0.66 0 1 0 C1 3.96 1 7.92 1 12 C5.29 12 9.58 12 14 12 C13.67 12.66 13.34 13.32 13 14 C8.05 14 3.1 14 -2 14 C-2 13.34 -2 12.68 -2 12 C-1.34 12 -0.68 12 0 12 C0 8.04 0 4.08 0 0 Z " fill="#F6AE59" transform="translate(114,136)"/>
<path d="M0 0 C6.875 0.875 6.875 0.875 8 2 C8.04063832 3.66617115 8.042721 5.33388095 8 7 C4.85262818 6.30058404 1.97411124 5.23921302 -1 4 C-0.67 2.68 -0.34 1.36 0 0 Z " fill="#874604" transform="translate(75,173)"/>
<path d="M0 0 C2.97 0 5.94 0 9 0 C9 0.33 9 0.66 9 1 C7.02 1.33 5.04 1.66 3 2 C6.3 2.33 9.6 2.66 13 3 C13 3.33 13 3.66 13 4 C5.64206267 4.91160286 -1.58982977 5.11459026 -9 5 C-9 4.67 -9 4.34 -9 4 C-8.071875 3.87625 -7.14375 3.7525 -6.1875 3.625 C-2.86074765 3.18466918 -2.86074765 3.18466918 0 1 C0 0.67 0 0.34 0 0 Z " fill="#552C02" transform="translate(154,48)"/>
<path d="M0 0 C0 1.32 0 2.64 0 4 C-3.63 4 -7.26 4 -11 4 C-11.33 3.34 -11.66 2.68 -12 2 C-7.82262526 0.40861915 -4.46839215 -0.21278058 0 0 Z " fill="#DA7308" transform="translate(147,19)"/>
<path d="M0 0 C10.55808656 -0.18451025 10.55808656 -0.18451025 15 1 C15 1.66 15 2.32 15 3 C10.05 3 5.1 3 0 3 C0 2.01 0 1.02 0 0 Z " fill="#F7A526" transform="translate(64,160)"/>
<path d="M0 0 C-0.33 1.65 -0.66 3.3 -1 5 C-3.97 5 -6.94 5 -10 5 C-7.2178219 -0.5643562 -5.86594058 -0.12752045 0 0 Z " fill="#9A5105" transform="translate(146,31)"/>
<path d="M0 0 C0.99 0.33 1.98 0.66 3 1 C3 2.98 3 4.96 3 7 C3.66 7 4.32 7 5 7 C4.34 8.32 3.68 9.64 3 11 C1.35 10.67 -0.3 10.34 -2 10 C-2 9.01 -2 8.02 -2 7 C-1.34 7 -0.68 7 0 7 C0 4.69 0 2.38 0 0 Z " fill="#F7B151" transform="translate(67,147)"/>
<path d="M0 0 C0.495 0.37125 0.99 0.7425 1.5 1.125 C1.5 1.785 1.5 2.445 1.5 3.125 C-1.47 3.785 -4.44 4.445 -7.5 5.125 C-7.5 4.465 -7.5 3.805 -7.5 3.125 C-8.49 3.125 -9.48 3.125 -10.5 3.125 C-10.5 2.465 -10.5 1.805 -10.5 1.125 C-3.11538462 -1.09038462 -3.11538462 -1.09038462 0 0 Z " fill="#9F5405" transform="translate(160.5,42.875)"/>
<path d="M0 0 C2.31 0 4.62 0 7 0 C6.67 1.65 6.34 3.3 6 5 C5.34 4.67 4.68 4.34 4 4 C3.67 4.66 3.34 5.32 3 6 C1.68 5.67 0.36 5.34 -1 5 C-0.67 3.35 -0.34 1.7 0 0 Z " fill="#924D05" transform="translate(102,177)"/>
<path d="M0 0 C0.33 0.66 0.66 1.32 1 2 C0.67 2.66 0.34 3.32 0 4 C-3.63 4 -7.26 4 -11 4 C-10.67 3.01 -10.34 2.02 -10 1 C-6.7 0.67 -3.4 0.34 0 0 Z " fill="#F7A52A" transform="translate(139,159)"/>
<path d="M0 0 C2.64 0.33 5.28 0.66 8 1 C8 1.66 8 2.32 8 3 C8.66 3.33 9.32 3.66 10 4 C6.7 4 3.4 4 0 4 C0 2.68 0 1.36 0 0 Z " fill="#C96907" transform="translate(143,48)"/>
<path d="M0 0 C2.64 0.33 5.28 0.66 8 1 C7.01 1.495 7.01 1.495 6 2 C6 3.32 6 4.64 6 6 C3.69 5.67 1.38 5.34 -1 5 C-0.67 3.35 -0.34 1.7 0 0 Z " fill="#864604" transform="translate(85,176)"/>
<path d="M0 0 C1.32 0 2.64 0 4 0 C4 2.31 4 4.62 4 7 C2.68 7 1.36 7 0 7 C0 4.69 0 2.38 0 0 Z " fill="#FFB901" transform="translate(97,111)"/>
<path d="M0 0 C0.763125 0.20625 1.52625 0.4125 2.3125 0.625 C2.6425 2.275 2.9725 3.925 3.3125 5.625 C2.3225 6.12 2.3225 6.12 1.3125 6.625 C0.9825 4.975 0.6525 3.325 0.3125 1.625 C-0.265 1.91375 -0.8425 2.2025 -1.4375 2.5 C-4.5625 4.0625 -4.5625 4.0625 -7.6875 5.625 C-6.02612914 1.79106724 -4.59035464 -0.6405146 0 0 Z " fill="#C76907" transform="translate(73.6875,22.375)"/>
<path d="M0 0 C0 3 0 3 -1.5 4.6875 C-1.995 5.120625 -2.49 5.55375 -3 6 C-3 5.34 -3 4.68 -3 4 C-4.70840281 5.63412443 -5.93453047 6.86906094 -7 9 C-7.66 8.67 -8.32 8.34 -9 8 C-4.63636364 0 -4.63636364 0 0 0 Z " fill="#613303" transform="translate(101,19)"/>
<path d="M0 0 C0.66 0.33 1.32 0.66 2 1 C1.34 1.66 0.68 2.32 0 3 C-0.16687448 5.58354218 -0.16687448 5.58354218 0 8 C-0.598125 7.814375 -1.19625 7.62875 -1.8125 7.4375 C-4.16408762 6.77906313 -4.16408762 6.77906313 -7 8 C-7 7.01 -7 6.02 -7 5 C-6.34 5 -5.68 5 -5 5 C-4.67 4.34 -4.34 3.68 -4 3 C-3.67 3.33 -3.34 3.66 -3 4 C-2.01 2.68 -1.02 1.36 0 0 Z " fill="#8B4904" transform="translate(104,20)"/>
<path d="M0 0 C-0.66 1.98 -1.32 3.96 -2 6 C-2.66 6 -3.32 6 -4 6 C-4 5.34 -4 4.68 -4 4 C-4.99 4 -5.98 4 -7 4 C-6.67 3.01 -6.34 2.02 -6 1 C-4 0 -4 0 0 0 Z " fill="#AF5C06" transform="translate(69,168)"/>
<path d="M0 0 C0.89332031 0.13921875 1.78664063 0.2784375 2.70703125 0.421875 C3.60808594 0.55078125 4.50914063 0.6796875 5.4375 0.8125 C6.12457031 0.93109375 6.81164062 1.0496875 7.51953125 1.171875 C7.51953125 1.501875 7.51953125 1.831875 7.51953125 2.171875 C5.86953125 2.501875 4.21953125 2.831875 2.51953125 3.171875 C2.51953125 3.501875 2.51953125 3.831875 2.51953125 4.171875 C-0.12046875 4.171875 -2.76046875 4.171875 -5.48046875 4.171875 C-3.17521711 0.22001504 -3.17521711 0.22001504 0 0 Z " fill="#FBE1BE" transform="translate(103.48046875,134.828125)"/>
<path d="M0 0 C2.97 0 5.94 0 9 0 C7.35 1.65 5.7 3.3 4 5 C2.68 3.35 1.36 1.7 0 0 Z " fill="#F5AE64" transform="translate(97,102)"/>
<path d="M0 0 C2.96175123 0.61277612 4.38058783 1.25372522 7 3 C4 5 4 5 1.8125 4.625 C1.214375 4.41875 0.61625 4.2125 0 4 C0 2.68 0 1.36 0 0 Z " fill="#8E4B04" transform="translate(137,168)"/>
<path d="M0 0 C-0.33 0.99 -0.66 1.98 -1 3 C-3.0625 3.6875 -3.0625 3.6875 -5 4 C-5.66 2.68 -6.32 1.36 -7 0 C-4.3333581 -1.33332095 -2.83319697 -0.67102033 0 0 Z " fill="#F7AD3A" transform="translate(138,154)"/>
<path d="M0 0 C0.33 0.66 0.66 1.32 1 2 C0.030625 1.979375 -0.93875 1.95875 -1.9375 1.9375 C-4.87465895 1.64381501 -4.87465895 1.64381501 -6 3 C-8.67058851 3.14115161 -11.32432238 3.04247107 -14 3 C-14 2.67 -14 2.34 -14 2 C-9.07262981 0.02905192 -5.21979128 -0.1799928 0 0 Z " fill="#F6B05C" transform="translate(106,134)"/>
<path d="M0 0 C0.66 0.33 1.32 0.66 2 1 C-0.97 3.97 -3.94 6.94 -7 10 C-7.66 8.68 -8.32 7.36 -9 6 C-8.1646875 5.9071875 -8.1646875 5.9071875 -7.3125 5.8125 C-4.05012827 4.66626128 -2.31332126 2.50609803 0 0 Z " fill="#5D3103" transform="translate(121,17)"/>
<path d="M0 0 C-0.66 2.31 -1.32 4.62 -2 7 C-2.99 6.67 -3.98 6.34 -5 6 C-5.6875 3.9375 -5.6875 3.9375 -6 2 C-2.25 0 -2.25 0 0 0 Z " fill="#944E05" transform="translate(126,173)"/>
<path d="M0 0 C2.97 0 5.94 0 9 0 C9 0.66 9 1.32 9 2 C9.66 2.33 10.32 2.66 11 3 C8.69 3 6.38 3 4 3 C4 2.34 4 1.68 4 1 C2.35 1.33 0.7 1.66 -1 2 C-0.67 1.34 -0.34 0.68 0 0 Z " fill="#9C5205" transform="translate(157,52)"/>
<path d="M0 0 C3.96 0 7.92 0 12 0 C11.01 0.495 11.01 0.495 10 1 C10 1.66 10 2.32 10 3 C8.68 3 7.36 3 6 3 C6 2.34 6 1.68 6 1 C4.02 1 2.04 1 0 1 C0 0.67 0 0.34 0 0 Z " fill="#FBE2C8" transform="translate(126,131)"/>
<path d="M0 0 C0 0.66 0 1.32 0 2 C-2.97 2 -5.94 2 -9 2 C-9.33 1.34 -9.66 0.68 -10 0 C-3.375 -1.125 -3.375 -1.125 0 0 Z " fill="#D47007" transform="translate(166,49)"/>
<path d="M0 0 C0.33 0 0.66 0 1 0 C1 1.65 1 3.3 1 5 C1.66 5.33 2.32 5.66 3 6 C2.38125 6.28875 1.7625 6.5775 1.125 6.875 C-1.13325765 7.93720042 -1.13325765 7.93720042 -3 10 C-3 7.69 -3 5.38 -3 3 C-2.01 3.33 -1.02 3.66 0 4 C0 2.68 0 1.36 0 0 Z " fill="#AA5906" transform="translate(41,41)"/>
<path d="M0 0 C0.99 0 1.98 0 3 0 C3 0.66 3 1.32 3 2 C4.32 1.67 5.64 1.34 7 1 C6.67 1.66 6.34 2.32 6 3 C5.34 3 4.68 3 4 3 C3.34 4.32 2.68 5.64 2 7 C1.855625 6.401875 1.71125 5.80375 1.5625 5.1875 C1.1127561 3.43849596 0.57107659 1.71322977 0 0 Z " fill="#743D03" transform="translate(106,19)"/>
<path d="M0 0 C0 2.62113708 -0.31292445 4.50935112 -1 7 C-1.66 7 -2.32 7 -3 7 C-3.33 7.99 -3.66 8.98 -4 10 C-4.33 9.01 -4.66 8.02 -5 7 C-2 2 -2 2 0 0 Z " fill="#AA5905" transform="translate(85,9)"/>
<path d="M0 0 C0.99 0 1.98 0 3 0 C3 1.98 3 3.96 3 6 C2.01 6 1.02 6 0 6 C0 4.02 0 2.04 0 0 Z " fill="#F8CA99" transform="translate(67,132)"/>
<path d="M0 0 C0.99 0.66 1.98 1.32 3 2 C1.1875 3.5625 1.1875 3.5625 -1 5 C-1.99 4.67 -2.98 4.34 -4 4 C-2.68 2.68 -1.36 1.36 0 0 Z " fill="#CF6D07" transform="translate(117,23)"/>
<path d="M0 0 C0.66 1.32 1.32 2.64 2 4 C-0.475 5.485 -0.475 5.485 -3 7 C-2.25 2.25 -2.25 2.25 0 0 Z " fill="#E47808" transform="translate(106,20)"/>
<path d="M0 0 C1 2 2 4 3 6 C1.68 6 0.36 6 -1 6 C-1.625 4.125 -1.625 4.125 -2 2 C-1.34 1.34 -0.68 0.68 0 0 Z " fill="#783F04" transform="translate(134,169)"/>
<path d="M0 0 C0.33 0 0.66 0 1 0 C1 2.31 1 4.62 1 7 C0.01 7.33 -0.98 7.66 -2 8 C-2 6.35 -2 4.7 -2 3 C-1.34 3 -0.68 3 0 3 C0 2.01 0 1.02 0 0 Z " fill="#DE7508" transform="translate(82,16)"/>
</svg>
